{"title":"Kennedy.2015.04.15.WS.SDTV.x264-XAiO","uid":12011625,"size":367443470,"categoryP":"video","categoryS":"tv_shows","magnet":"?xt=urn:btih:ef2c70245dd6f348b69bba861991d61b29624739&amp;dn=Kennedy.2015.04.15.WS.SDTV.x264-XAiO&amp;tr=udp%3A%2F%2Ftracker.openbittorrent.com%3A80&amp;tr=udp%3A%2F%2Fopen.demonii.com%3A1337&amp;tr=udp%3A%2F%2Ftracker.coppersurfer.tk%3A6969&amp;tr=udp%3A%2F%2Fexodus.desync.com%3A6969","seeders":0,"leechers":0,"uploader":"Reive","files":1,"time":1434169069,"description":"&quot;Kennedy&quot; is a news panel show hosted by Kennedy Montgomery. Kennedy Montgomery is a libertarian that you may recognize from 90's MTV, Stossel, and the Independents.\n\nNotes:\nThere will be some large gaps in my upcoming posts of Kennedy. I lost the ability to rip my own episodes and had to rely on a friends DVR. Lots of episodes were missed.\n\nGeneral\nComplete name                            : Kennedy.2015.04.15.WS.SDTV.x264-XAiO.mp4\nFormat                                   : MPEG-4\nFormat profile                           : Base Media\nCodec ID                                 : isom\nFile size                                : 350 MiB\nDuration                                 : 42mn 1s\nOverall bit rate                         : 1 166 Kbps\nWriting application                      : Lavf54.63.104\n\nVideo\nID                                       : 1\nFormat                                   : AVC\nFormat/Info                              : Advanced Video Codec\nFormat profile                           : High@L3\nFormat settings, CABAC                   : Yes\nFormat settings, ReFrames                : 4 frames\nCodec ID                                 : avc1\nCodec ID/Info                            : Advanced Video Coding\nDuration                                 : 42mn 1s\nBit rate                                 : 1 027 Kbps\nWidth                                    : 624 pixels\nHeight                                   : 364 pixels\nDisplay aspect ratio                     : 1.714\nFrame rate mode                          : Variable\nFrame rate                               : 29.970 fps\nMinimum frame rate                       : 9.990 fps\nMaximum frame rate                       : 29.970 fps\nColor space                              : YUV\nChroma subsampling                       : 4:2:0\nBit depth                                : 8 bits\nScan type                                : Progressive\nBits/(Pixel*Frame)                       : 0.151\nStream size                              : 309 MiB (88%)\nWriting library                          : x264 core 123 r2189 35cf912\nEncoding settings                        : cabac=1 / ref=3 / deblock=1:0:0 / analyse=0x3:0x133 / me=hex / subme=7 / psy=1 / psy_rd=1.00:0.00 / mixed_ref=1 / me_range=16 / chroma_me=1 / trellis=1 / 8x8dct=1 / cqm=0 / deadzone=21,11 / fast_pskip=1 / chroma_qp_offset=-2 / threads=6 / sliced_threads=0 / nr=0 / decimate=1 / interlaced=0 / bluray_compat=0 / constrained_intra=0 / bframes=3 / b_pyramid=2 / b_adapt=1 / b_bias=0 / direct=1 / weightb=1 / open_gop=0 / weightp=2 / keyint=250 / keyint_min=25 / scenecut=40 / intra_refresh=0 / rc_lookahead=40 / rc=2pass / mbtree=1 / bitrate=1027 / ratetol=1.0 / qcomp=0.60 / qpmin=10 / qpmax=51 / qpstep=4 / cplxblur=20.0 / qblur=0.5 / ip_ratio=1.40 / aq=1:1.00\n\nAudio\nID                                       : 2\nFormat                                   : AAC\nFormat/Info                              : Advanced Audio Codec\nFormat profile                           : LC\nCodec ID                                 : 40\nDuration                                 : 42mn 1s\nBit rate mode                            : Constant\nBit rate                                 : 128 Kbps\nChannel(s)                               : 2 channels\nChannel positions                        : Front: L R\nSampling rate                            : 48.0 KHz\nCompression mode                         : Lossy\nStream size                              : 38.5 MiB (11%)\nLanguage                                 : unk","torrent":{"xt":"urn:btih:ef2c70245dd6f348b69bba861991d61b29624739","amp;dn":"Kennedy.2015.04.15.WS.SDTV.x264-XAiO","amp;tr":["udp%3A%2F%2Ftracker.openbittorrent.com%3A80","udp%3A%2F%2Fopen.demonii.com%3A1337","udp%3A%2F%2Ftracker.coppersurfer.tk%3A6969","udp%3A%2F%2Fexodus.desync.com%3A6969"],"infoHash":"ef2c70245dd6f348b69bba861991d61b29624739","infoHashBuffer":{"type":"Buffer","data":[239,44,112,36,93,214,243,72,182,155,186,134,25,145,214,27,41,98,71,57]},"announce":[],"urlList":[]}}